# xmcd CD database file
#
# Track frame offsets:
#	182
#	20137
#	38380
#	61097
#	83217
#	104110
#	125285
#	151535
#	171837
#	194637
#	216237
#	240462
#	261045
#	282272
#	303037
#
# Disc length: 4300 seconds
#
# Revision: 1
# Processed by: cddbd v1.5PL3 Copyright (c) Steve Scherf et al.
# Submitted via: CDex 1.51
#
DISCID=c410ca0f
DTITLE=Salsa Kids - Cocktail Musical
DYEAR=1900
DGENRE=Salsa
TTITLE0=La Magia de tus 15 anos
TTITLE1=El Celoso
TTITLE2=Dos copas de vino
TTITLE3=O lo matas ti o lo mato zo
TTITLE4=Mi formula de amor
TTITLE5=Respuesta al santo cachon
TTITLE6=Te dejo libre
TTITLE7=Que siga el party
TTITLE8=Siempre
TTITLE9=El gato
TTITLE10=Mujer prohibida
TTITLE11=Dime si me quieres
TTITLE12=Mas alla de la piel
TTITLE13=Me atrapa la noche
TTITLE14=No puede ser
EXTD=
EXTT0=
EXTT1=
EXTT2=
EXTT3=
EXTT4=
EXTT5=
EXTT6=
EXTT7=
EXTT8=
EXTT9=
EXTT10=
EXTT11=
EXTT12=
EXTT13=
EXTT14=
PLAYORDER=
